<svg width="145" height="48" viewBox="0 0 145 48" fill="none" xmlns="http://www.w3.org/2000/svg">
<g clip-path="url(#clip0_2358_11399)">
<path d="M133.071 0.000156H12.3508C11.9108 0.000156 11.476 0.000156 11.0371 0.002556C10.6697 0.004956 10.3053 0.011928 9.93438 0.017796C9.1286 0.0272782 8.32471 0.0981675 7.5297 0.229848C6.73581 0.364395 5.96679 0.618055 5.24864 0.982248C4.53138 1.34952 3.87599 1.82676 3.30626 2.39664C2.73354 2.96492 2.25614 3.62178 1.8924 4.34195C1.52766 5.06069 1.27475 5.83088 1.1424 6.62593C1.00879 7.41998 0.936898 8.22318 0.92736 9.02833C0.916224 9.39625 0.915048 9.7654 0.90918 10.1334V37.8705C0.915048 38.2431 0.916224 38.604 0.92736 38.9768C0.936901 39.7819 1.0088 40.585 1.1424 41.379C1.27438 42.1745 1.52731 42.9452 1.8924 43.6642C2.25597 44.382 2.73344 45.0362 3.30626 45.6014C3.87383 46.1738 4.52964 46.6513 5.24864 47.0158C5.96678 47.381 6.73572 47.6361 7.5297 47.7728C8.32484 47.9034 9.12865 47.9743 9.93438 47.9849C10.3053 47.9931 10.6697 47.9978 11.0371 47.9978C11.476 48.0002 11.9108 48.0002 12.3508 48.0002H133.071C133.502 48.0002 133.94 48.0002 134.372 47.9978C134.737 47.9978 135.112 47.9931 135.478 47.9849C136.282 47.9749 137.084 47.9039 137.878 47.7728C138.675 47.6352 139.446 47.3801 140.168 47.0158C140.886 46.6511 141.541 46.1736 142.108 45.6014C142.68 45.034 143.158 44.3803 143.526 43.6642C143.889 42.9447 144.139 42.1741 144.269 41.379C144.403 40.5849 144.478 39.7819 144.492 38.9768C144.497 38.604 144.497 38.2431 144.497 37.8705C144.506 37.4345 144.506 37.001 144.506 36.5579V11.4435C144.506 11.0041 144.506 10.5681 144.497 10.1334C144.497 9.7654 144.497 9.39625 144.492 9.02828C144.478 8.22306 144.403 7.42004 144.269 6.62588C144.139 5.83129 143.888 5.06116 143.526 4.3419C142.786 2.89839 141.611 1.72339 140.168 0.98214C139.446 0.618837 138.674 0.365245 137.878 0.22974C137.085 0.0974794 136.282 0.0265653 135.478 0.017628C135.112 0.011772 134.737 0.00474 134.372 0.0024C133.94 0 133.502 0.000156 133.071 0.000156Z" fill="#A6A6A6"/>
<path d="M11.0432 46.9498C10.6776 46.9498 10.3208 46.9451 9.95807 46.937C9.2066 46.9272 8.4569 46.8618 7.7151 46.7412C7.02341 46.6221 6.35334 46.4005 5.72701 46.0838C5.10642 45.7696 4.54039 45.3577 4.05061 44.8638C3.55374 44.3758 3.14007 43.8097 2.826 43.188C2.50847 42.5623 2.28871 41.8917 2.1744 41.1994C2.05095 40.4555 1.98416 39.7034 1.9746 38.9494C1.96699 38.6963 1.95703 37.8537 1.95703 37.8537V10.133C1.95703 10.133 1.96764 9.30332 1.97466 9.05956C1.98381 8.30678 2.05021 7.55579 2.1733 6.81308C2.28782 6.1189 2.50774 5.4463 2.82545 4.81856C3.13837 4.19734 3.54974 3.63084 4.04362 3.14102C4.53694 2.64655 5.10478 2.23253 5.72642 1.91406C6.35132 1.59832 7.02011 1.37828 7.71041 1.26133C8.45464 1.13961 9.20695 1.0738 9.96102 1.06446L11.0438 1.0498H134.366L135.462 1.06504C136.209 1.07392 136.954 1.13914 137.692 1.26015C138.389 1.37857 139.065 1.60014 139.697 1.91757C140.942 2.55939 141.956 3.5748 142.595 4.82149C142.908 5.4449 143.124 6.11201 143.237 6.80019C143.362 7.54899 143.431 8.30589 143.446 9.06484C143.449 9.40468 143.449 9.76972 143.449 10.133C143.459 10.583 143.459 11.0113 143.459 11.4432V36.5576C143.459 36.9935 143.459 37.4189 143.449 37.8478C143.449 38.238 143.449 38.5955 143.445 38.9634C143.431 39.7089 143.362 40.4522 143.239 41.1876C143.127 41.8849 142.909 42.5608 142.591 43.1916C142.275 43.8065 141.864 44.3677 141.373 44.8545C140.883 45.351 140.315 45.7653 139.693 46.0815C139.063 46.4007 138.388 46.6231 137.692 46.7412C136.95 46.8624 136.2 46.9278 135.449 46.937C135.097 46.9451 134.729 46.9498 134.372 46.9498L133.071 46.9522L11.0432 46.9498Z" fill="black"/>
<path d="M30.6318 24.3608C30.6447 23.3592 30.9107 22.3771 31.4052 21.506C31.8996 20.6348 32.6063 19.9029 33.4596 19.3783C32.9176 18.6041 32.2024 17.967 31.371 17.5175C30.5396 17.0681 29.6149 16.8187 28.6703 16.7891C26.6552 16.5776 24.7016 17.9949 23.6748 17.9949C22.6281 17.9949 21.0471 16.8101 19.3446 16.8451C18.2434 16.8807 17.1702 17.2009 16.2295 17.7746C15.2888 18.3483 14.5128 19.1558 13.9771 20.1186C11.6563 24.1367 13.3874 30.0419 15.6105 33.2899C16.7228 34.8803 18.0227 36.6568 19.7237 36.5938C21.3881 36.5248 22.0098 35.5324 24.0189 35.5324C26.0095 35.5324 26.5927 36.5938 28.3281 36.5538C30.1142 36.5248 31.2395 34.9563 32.3128 33.3508C33.1119 32.2176 33.7269 30.9651 34.1349 29.6398C33.0972 29.2009 32.2117 28.4663 31.5888 27.5275C30.9658 26.5888 30.633 25.4874 30.6318 24.3608Z" fill="white"/>
<path d="M27.3539 14.6526C28.3277 13.4836 28.8075 11.9809 28.6913 10.4639C27.2035 10.6201 25.8292 11.3312 24.8422 12.4554C24.3596 13.0046 23.99 13.6435 23.7545 14.3356C23.519 15.0278 23.4223 15.7595 23.4698 16.4891C24.2139 16.4967 24.9501 16.3354 25.6229 16.0173C26.2957 15.6992 26.8876 15.2326 27.3539 14.6526Z" fill="white"/>
<path d="M51.6717 32.5662H45.9916L44.6275 36.594H42.2217L47.6018 21.6924H50.1014L55.4814 36.594H53.0346L51.6717 32.5662ZM46.5799 30.7076H51.0823L48.8627 24.1709H48.8006L46.5799 30.7076Z" fill="white"/>
<path d="M67.1002 31.1628C67.1002 34.5389 65.2932 36.7081 62.5662 36.7081C61.8755 36.7442 61.1885 36.5851 60.5839 36.2489C59.9794 35.9127 59.4817 35.4131 59.1479 34.8073H59.0963V40.1885H56.8662V25.7299H59.0248V27.537H59.0659C59.415 26.934 59.9211 26.437 60.5302 26.0988C61.1394 25.7606 61.8288 25.5938 62.5252 25.6163C65.2826 25.6163 67.1002 27.796 67.1002 31.1628ZM64.808 31.1628C64.808 28.9632 63.6713 27.517 61.9369 27.517C60.233 27.517 59.0869 28.9936 59.0869 31.1628C59.0869 33.3518 60.233 34.8178 61.9369 34.8178C63.6713 34.8178 64.808 33.3823 64.808 31.1628Z" fill="white"/>
<path d="M79.0582 31.1627C79.0582 34.5389 77.2512 36.7081 74.5243 36.7081C73.8335 36.7442 73.1465 36.5851 72.5419 36.2489C71.9374 35.9127 71.4397 35.4131 71.1059 34.8073H71.0543V40.1885H68.8242V25.7299H70.9828V27.537H71.0238C71.373 26.934 71.879 26.437 72.4882 26.0988C73.0974 25.7605 73.7868 25.5938 74.4832 25.6163C77.2407 25.6163 79.0582 27.7959 79.0582 31.1627ZM76.766 31.1627C76.766 28.9631 75.6293 27.517 73.8949 27.517C72.191 27.517 71.0449 28.9936 71.0449 31.1627C71.0449 33.3518 72.191 34.8178 73.8949 34.8178C75.6293 34.8178 76.766 33.3823 76.766 31.1627Z" fill="white"/>
<path d="M86.9616 32.4424C87.1268 33.9202 88.5624 34.8904 90.5241 34.8904C92.4038 34.8904 93.7561 33.9201 93.7561 32.5877C93.7561 31.4311 92.9405 30.7385 91.0092 30.2639L89.078 29.7986C86.3417 29.1377 85.0713 27.858 85.0713 25.7814C85.0713 23.2104 87.312 21.4443 90.4936 21.4443C93.6424 21.4443 95.801 23.2104 95.8737 25.7814H93.6225C93.4877 24.2943 92.2584 23.3967 90.4619 23.3967C88.6654 23.3967 87.4361 24.3049 87.4361 25.6268C87.4361 26.6803 88.2213 27.3002 90.142 27.7748L91.7838 28.1779C94.8412 28.9009 96.1115 30.1291 96.1115 32.3088C96.1115 35.0966 93.8908 36.8427 90.3588 36.8427C87.0541 36.8427 84.8229 35.1377 84.6787 32.4423L86.9616 32.4424Z" fill="white"/>
<path d="M100.925 23.1592V25.7303H102.991V27.4963H100.925V33.4857C100.925 34.4162 101.338 34.8498 102.247 34.8498C102.492 34.8455 102.737 34.8283 102.98 34.7982V36.5537C102.572 36.63 102.157 36.6645 101.742 36.6568C99.542 36.6568 98.6842 35.8306 98.6842 33.7236V27.4963H97.1045V25.7303H98.6841V23.1592H100.925Z" fill="white"/>
<path d="M104.187 31.1631C104.187 27.7447 106.2 25.5967 109.339 25.5967C112.489 25.5967 114.493 27.7447 114.493 31.1631C114.493 34.5908 112.5 36.7295 109.339 36.7295C106.18 36.7295 104.187 34.5908 104.187 31.1631ZM112.221 31.1631C112.221 28.8182 111.146 27.4342 109.339 27.4342C107.532 27.4342 106.459 28.8287 106.459 31.1631C106.459 33.5174 107.532 34.8908 109.339 34.8908C111.146 34.8908 112.221 33.5174 112.221 31.1631Z" fill="white"/>
<path d="M116.332 25.7298H118.459V27.579H118.511C118.654 27.0015 118.993 26.4911 119.469 26.1336C119.945 25.7762 120.529 25.5934 121.124 25.6161C121.381 25.6152 121.637 25.6432 121.888 25.6994V27.7853C121.563 27.6862 121.225 27.6406 120.886 27.6505C120.562 27.6374 120.239 27.6945 119.939 27.818C119.639 27.9414 119.37 28.1283 119.149 28.3658C118.928 28.6033 118.762 28.8857 118.66 29.1937C118.559 29.5017 118.525 29.828 118.562 30.1501V36.5943H116.332L116.332 25.7298Z" fill="white"/>
<path d="M132.171 33.4037C131.871 35.376 129.95 36.7295 127.492 36.7295C124.332 36.7295 122.37 34.6119 122.37 31.2146C122.37 27.8068 124.342 25.5967 127.399 25.5967C130.404 25.5967 132.295 27.6615 132.295 30.9557V31.7197H124.621V31.8545C124.586 32.2543 124.636 32.6571 124.768 33.0361C124.9 33.4151 125.112 33.7617 125.388 34.0527C125.665 34.3438 126 34.5727 126.371 34.7243C126.743 34.8758 127.143 34.9466 127.544 34.9318C128.071 34.9812 128.6 34.8592 129.052 34.5838C129.504 34.3085 129.855 33.8946 130.053 33.4037L132.171 33.4037ZM124.632 30.1611H130.063C130.083 29.8016 130.029 29.4418 129.903 29.1044C129.778 28.7669 129.584 28.4591 129.334 28.2002C129.083 27.9413 128.782 27.7369 128.449 27.5998C128.116 27.4627 127.759 27.396 127.399 27.4037C127.035 27.4015 126.675 27.4713 126.339 27.609C126.003 27.7467 125.698 27.9496 125.441 28.2059C125.183 28.4623 124.98 28.7671 124.841 29.1026C124.702 29.4382 124.631 29.798 124.632 30.1611Z" fill="white"/>
<path d="M43.7139 17.6376V10.4775H46.592C47.9373 10.4775 48.7459 11.1619 48.7459 12.2635C48.7462 12.6253 48.6214 12.9762 48.3927 13.2566C48.164 13.537 47.8454 13.7297 47.4908 13.8022V13.8865C47.9307 13.9073 48.3452 14.0988 48.6463 14.4202C48.9473 14.7416 49.1113 15.1677 49.1033 15.608C49.1033 16.8684 48.1857 17.6377 46.6564 17.6377L43.7139 17.6376ZM44.826 13.5091H46.1455C47.1287 13.5091 47.6397 13.147 47.6397 12.4673C47.6397 11.807 47.158 11.4203 46.3342 11.4203H44.826V13.5091ZM46.4338 16.6949C47.4358 16.6949 47.9666 16.2876 47.9666 15.5289C47.9666 14.7794 47.4158 14.3875 46.3693 14.3875H44.826V16.6949H46.4338Z" fill="white"/>
<path d="M50.2461 16.1096C50.2461 15.1369 50.9703 14.5762 52.2559 14.4965L53.7195 14.4121V13.9457C53.7195 13.375 53.3422 13.0527 52.6133 13.0527C52.018 13.0527 51.6055 13.2713 51.4871 13.6533H50.4547C50.5637 12.7252 51.4367 12.1299 52.6625 12.1299C54.0172 12.1299 54.7813 12.8043 54.7813 13.9457V17.6377H53.7547V16.8783H53.6703C53.4991 17.1507 53.2586 17.3728 52.9734 17.5218C52.6883 17.6709 52.3687 17.7416 52.0473 17.7267C51.8204 17.7503 51.5912 17.7261 51.3742 17.6557C51.1573 17.5852 50.9576 17.4701 50.7879 17.3178C50.6182 17.1654 50.4823 16.9792 50.389 16.7711C50.2957 16.563 50.247 16.3376 50.2461 16.1096ZM53.7195 15.6478V15.1961L52.4 15.2805C51.6559 15.3303 51.3184 15.5834 51.3184 16.0598C51.3184 16.5461 51.7402 16.8291 52.3204 16.8291C52.4903 16.8463 52.662 16.8291 52.8252 16.7786C52.9884 16.7281 53.1398 16.6453 53.2704 16.5351C53.4009 16.4249 53.5079 16.2895 53.5851 16.1371C53.6623 15.9847 53.708 15.8183 53.7195 15.6478Z" fill="white"/>
<path d="M56.3118 10.6362C56.3035 10.4981 56.337 10.3607 56.4078 10.2418C56.4785 10.1229 56.5834 10.028 56.7087 9.96937C56.834 9.91075 56.9741 9.89111 57.1107 9.913C57.2473 9.93488 57.3742 9.99729 57.475 10.0921C57.5757 10.187 57.6457 10.3099 57.6757 10.4449C57.7058 10.58 57.6947 10.721 57.6437 10.8496C57.5928 10.9782 57.5043 11.0886 57.3899 11.1664C57.2755 11.2442 57.1404 11.2859 57.002 11.286C56.9136 11.2905 56.8251 11.2771 56.742 11.2466C56.6589 11.216 56.5828 11.169 56.5183 11.1083C56.4539 11.0476 56.4023 10.9745 56.3668 10.8934C56.3313 10.8122 56.3126 10.7248 56.3118 10.6362ZM56.47 12.2341H57.5329V17.6376H56.4699L56.47 12.2341Z" fill="white"/>
<path d="M61.1924 15.7225L60.0111 17.6379H58.8404L60.6322 14.9484L58.8252 12.2344H60.0709L61.2322 14.1398H61.3166L62.4674 12.2344H63.6533L61.8721 14.9039L63.6733 17.6379H62.4486L61.272 15.7225H61.1924Z" fill="white"/>
<path d="M64.6143 16.1096C64.6143 15.1369 65.3385 14.5762 66.624 14.4965L68.0877 14.4121V13.9457C68.0877 13.375 67.7104 13.0527 66.9814 13.0527C66.3861 13.0527 65.9736 13.2713 65.8553 13.6533H64.8229C64.9318 12.7252 65.8049 12.1299 67.0307 12.1299C68.3854 12.1299 69.1494 12.8043 69.1494 13.9457V17.6377H68.1229V16.8783H68.0385C67.8672 17.1507 67.6267 17.3728 67.3416 17.5218C67.0564 17.6709 66.7368 17.7416 66.4154 17.7267C66.1886 17.7503 65.9593 17.7261 65.7424 17.6557C65.5255 17.5852 65.3258 17.4701 65.1561 17.3178C64.9864 17.1654 64.8505 16.9792 64.7571 16.7711C64.6638 16.563 64.6152 16.3376 64.6143 16.1096ZM68.0877 15.6478V15.1961L66.7682 15.2805C66.024 15.3303 65.6865 15.5834 65.6865 16.0598C65.6865 16.5461 66.1084 16.8291 66.6885 16.8291C66.8585 16.8463 67.0302 16.8291 67.1934 16.7786C67.3566 16.7281 67.508 16.6453 67.6385 16.5351C67.7691 16.4249 67.8761 16.2895 67.9533 16.1371C68.0304 15.9847 68.0762 15.8183 68.0877 15.6478Z" fill="white"/>
<path d="M70.8193 12.2336H71.8459V13.0621H71.9256C72.0405 12.7745 72.2436 12.5307 72.5058 12.3657C72.7679 12.2008 73.0756 12.1231 73.3846 12.1439C73.5443 12.1418 73.7038 12.1567 73.8604 12.1885V13.2409C73.6647 13.1991 73.4652 13.1775 73.265 13.1764C73.0892 13.1606 72.9119 13.1818 72.7447 13.2386C72.5775 13.2954 72.424 13.3865 72.2941 13.5061C72.1642 13.6258 72.0608 13.7713 71.9904 13.9332C71.9201 14.0952 71.8845 14.2701 71.8858 14.4467V17.6372H70.8193L70.8193 12.2336Z" fill="white"/>
<path d="M77.9697 12.2336H78.9969V13.092H79.0766C79.2118 12.7837 79.4398 12.5253 79.7289 12.3527C80.0179 12.1802 80.3536 12.1021 80.6891 12.1293C80.952 12.1096 81.216 12.1492 81.4616 12.2453C81.7071 12.3414 81.9278 12.4916 82.1074 12.6846C82.2871 12.8776 82.4209 13.1086 82.4992 13.3603C82.5774 13.6121 82.598 13.8783 82.5594 14.1391V17.6371H81.493V14.4069C81.493 13.5385 81.1157 13.1067 80.327 13.1067C80.1485 13.0984 79.9703 13.1288 79.8046 13.1958C79.639 13.2628 79.4897 13.3648 79.3672 13.4948C79.2446 13.6249 79.1517 13.7799 79.0946 13.9493C79.0376 14.1186 79.0179 14.2983 79.0368 14.476V17.6372H77.9698L77.9697 12.2336Z" fill="white"/>
<path d="M83.9014 16.1096C83.9014 15.1369 84.6256 14.5762 85.9111 14.4965L87.3748 14.4121V13.9457C87.3748 13.375 86.9975 13.0527 86.2686 13.0527C85.6733 13.0527 85.2608 13.2713 85.1424 13.6533H84.11C84.2189 12.7252 85.092 12.1299 86.3178 12.1299C87.6725 12.1299 88.4365 12.8043 88.4365 13.9457V17.6377H87.41V16.8783H87.3256C87.1543 17.1507 86.9139 17.3728 86.6287 17.5218C86.3436 17.6709 86.024 17.7416 85.7025 17.7267C85.4757 17.7503 85.2464 17.7261 85.0295 17.6557C84.8126 17.5852 84.6129 17.4701 84.4432 17.3178C84.2735 17.1654 84.1376 16.9792 84.0443 16.7711C83.9509 16.563 83.9023 16.3376 83.9014 16.1096ZM87.3748 15.6478V15.1961L86.0553 15.2805C85.3111 15.3303 84.9736 15.5834 84.9736 16.0598C84.9736 16.5461 85.3955 16.8291 85.9756 16.8291C86.1456 16.8463 86.3173 16.8291 86.4805 16.7786C86.6437 16.7281 86.7951 16.6453 86.9256 16.5351C87.0562 16.4249 87.1632 16.2895 87.2404 16.1371C87.3176 15.9847 87.3633 15.8183 87.3748 15.6478Z" fill="white"/>
</g>
<defs>
<clipPath id="clip0_2358_11399">
<rect width="143.597" height="48" fill="white" transform="translate(0.90918)"/>
</clipPath>
</defs>
</svg>
