<svg width="163" height="48" viewBox="0 0 163 48" fill="none" xmlns="http://www.w3.org/2000/svg">
<mask id="mask0_2358_11350" style="mask-type:luminance" maskUnits="userSpaceOnUse" x="0" y="0" width="163" height="48">
<path d="M162.909 0H0V48H162.909V0Z" fill="white"/>
</mask>
<g mask="url(#mask0_2358_11350)">
<mask id="mask1_2358_11350" style="mask-type:luminance" maskUnits="userSpaceOnUse" x="0" y="0" width="163" height="48">
<path d="M162.909 0H0V48H162.909V0Z" fill="white"/>
</mask>
<g mask="url(#mask1_2358_11350)">
<path d="M156.874 48H6.0347C2.71599 48 0 45.2992 0 41.9991V6.00094C0 2.7008 2.71599 0 6.0347 0H156.877C160.193 0 162.909 2.7008 162.909 6.00094V42.0016C162.909 45.2992 160.193 48 156.874 48Z" fill="#12100B"/>
</g>
<mask id="mask2_2358_11350" style="mask-type:luminance" maskUnits="userSpaceOnUse" x="0" y="0" width="163" height="48">
<path d="M162.909 0H0V48H162.909V0Z" fill="white"/>
</mask>
<g mask="url(#mask2_2358_11350)">
<path d="M156.874 0.960451C159.669 0.960451 161.943 3.2224 161.943 6.00094V42.0016C161.943 44.7801 159.669 47.0421 156.874 47.0421H6.0347C3.24053 47.0421 0.965854 44.7801 0.965854 42.0016V6.00094C0.965854 3.2224 3.24053 0.960451 6.0347 0.960451H156.874ZM156.874 0H6.0347C2.71599 0 0 2.7008 0 6.00094V42.0016C0 45.3017 2.71599 48.0025 6.0347 48.0025H156.877C160.196 48.0025 162.912 45.3017 162.912 42.0016V6.00094C162.909 2.7008 160.193 0 156.874 0Z" fill="#AFACAB"/>
</g>
<mask id="mask3_2358_11350" style="mask-type:luminance" maskUnits="userSpaceOnUse" x="0" y="0" width="163" height="48">
<path d="M162.909 0H0V48H162.909V0Z" fill="white"/>
</mask>
<g mask="url(#mask3_2358_11350)">
<path d="M82.2207 26.0999C79.3837 26.0999 77.0686 28.2465 77.0686 31.2056C77.0686 34.1421 79.3811 36.3088 82.2207 36.3088C85.0577 36.3088 87.3727 34.1421 87.3727 31.2056C87.3727 28.2465 85.0602 26.0999 82.2207 26.0999ZM82.2207 34.2976C80.6647 34.2976 79.3231 33.0212 79.3231 31.2056C79.3231 29.3675 80.6647 28.1111 82.2207 28.1111C83.7766 28.1111 85.1157 29.3675 85.1157 31.2056C85.1182 33.0212 83.7766 34.2976 82.2207 34.2976ZM70.981 26.0999C68.1439 26.0999 65.8289 28.2465 65.8289 31.2056C65.8289 34.1421 68.1414 36.3088 70.981 36.3088C73.818 36.3088 76.133 34.1421 76.133 31.2056C76.1356 28.2465 73.8205 26.0999 70.981 26.0999ZM70.981 34.2976C69.4275 34.2976 68.0859 33.0212 68.0859 31.2056C68.0859 29.3675 69.4275 28.1111 70.981 28.1111C72.5369 28.1111 73.8785 29.3675 73.8785 31.2056C73.8785 33.0212 72.5369 34.2976 70.981 34.2976ZM57.6128 27.6672V29.8314H62.8229C62.6666 31.0501 62.2605 31.9379 61.6377 32.5573C60.8786 33.3121 59.6933 34.1421 57.6128 34.1421C54.4051 34.1421 51.8959 31.5717 51.8959 28.3819C51.8959 25.1921 54.4026 22.6217 57.6128 22.6217C59.3428 22.6217 60.6062 23.2963 61.5393 24.1665L63.0751 22.6393C61.7713 21.403 60.0413 20.4551 57.6128 20.4551C53.2198 20.4551 49.5254 24.0135 49.5254 28.3819C49.5254 32.7529 53.2198 36.3088 57.6128 36.3088C59.9833 36.3088 61.7713 35.5339 63.1734 34.0845C64.6109 32.6551 65.0598 30.6439 65.0598 29.0189C65.0598 28.5174 65.0219 28.0534 64.9438 27.6672H57.6128ZM112.288 29.3499C111.86 28.2089 110.558 26.1024 107.895 26.1024C105.252 26.1024 103.056 28.1713 103.056 31.2081C103.056 34.0694 105.232 36.3113 108.147 36.3113C110.5 36.3113 111.86 34.8819 112.424 34.0494L110.674 32.8883C110.089 33.7384 109.295 34.3001 108.147 34.3001C107 34.3001 106.183 33.7785 105.658 32.7554L112.52 29.9317L112.288 29.3499ZM105.29 31.0501C105.232 29.0766 106.826 28.0735 107.973 28.0735C108.869 28.0735 109.628 28.5174 109.88 29.1568L105.29 31.0501ZM99.7095 36.0003H101.964V20.9967H99.7095V36.0003ZM96.015 27.2409H95.9368C95.4299 26.6416 94.459 26.0999 93.236 26.0999C90.6688 26.0999 88.3184 28.3418 88.3184 31.2232C88.3184 34.0845 90.6713 36.3063 93.236 36.3063C94.4616 36.3063 95.4325 35.7646 95.9368 35.1452H96.015V35.88C96.015 37.8335 94.9659 38.8767 93.2738 38.8767C91.8944 38.8767 91.0369 37.8912 90.6889 37.0611L88.7244 37.8736C89.2868 39.2278 90.7848 40.8904 93.2738 40.8904C95.9166 40.8904 98.1535 39.3431 98.1535 35.574V26.4109H96.015V27.2409ZM93.4301 34.2976C91.8742 34.2976 90.5729 33.0036 90.5729 31.2257C90.5729 29.4276 91.8742 28.1136 93.4301 28.1136C94.9659 28.1136 96.1713 29.4276 96.1713 31.2257C96.1713 33.0036 94.9659 34.2976 93.4301 34.2976ZM122.852 20.9992H117.458V36.0003H119.707V30.3179H122.852C125.349 30.3179 127.8 28.5199 127.8 25.6586C127.8 22.7948 125.349 20.9992 122.852 20.9992ZM122.91 28.229H119.707V23.0857H122.91C124.595 23.0857 125.55 24.4724 125.55 25.6561C125.55 26.8196 124.595 28.229 122.91 28.229ZM136.825 26.0748C135.196 26.0748 133.507 26.7895 132.808 28.3694L134.808 29.1994C135.234 28.3694 136.031 28.0986 136.866 28.0986C138.031 28.0986 139.214 28.7932 139.234 30.027V30.1825C138.825 29.9518 137.953 29.6032 136.886 29.6032C134.732 29.6032 132.538 30.7793 132.538 32.9811C132.538 34.9897 134.306 36.2812 136.283 36.2812C137.799 36.2812 138.631 35.6066 139.156 34.8142H139.234V35.9728H141.408V30.2201C141.405 27.5594 139.408 26.0748 136.825 26.0748ZM136.556 34.2951C135.817 34.2951 134.788 33.929 134.788 33.0212C134.788 31.8626 136.069 31.4213 137.176 31.4213C138.165 31.4213 138.631 31.6344 139.234 31.9228C139.057 33.3121 137.854 34.2951 136.556 34.2951ZM149.324 26.4008L146.741 32.9058H146.663L143.985 26.4008H141.559L145.576 35.4913L143.286 40.5468H145.634L151.825 26.4008H149.324ZM129.043 36.0003H131.295V20.9992H129.043V36.0003Z" fill="white"/>
</g>
<mask id="mask4_2358_11350" style="mask-type:luminance" maskUnits="userSpaceOnUse" x="0" y="0" width="163" height="48">
<path d="M162.909 0H0V48H162.909V0Z" fill="white"/>
</mask>
<g mask="url(#mask4_2358_11350)">
<path d="M25.001 23.3096L12.1523 36.8687C12.1523 36.8712 12.1523 36.8738 12.1549 36.8763C12.5483 38.3483 13.9 39.4316 15.5064 39.4316C16.1494 39.4316 16.7496 39.2586 17.2666 38.9577L17.3069 38.9326L31.7695 30.6346L25.001 23.3096Z" fill="#E43629"/>
</g>
<mask id="mask5_2358_11350" style="mask-type:luminance" maskUnits="userSpaceOnUse" x="0" y="0" width="163" height="48">
<path d="M162.909 0H0V48H162.909V0Z" fill="white"/>
</mask>
<g mask="url(#mask5_2358_11350)">
<path d="M37.9989 20.9996L37.9863 20.9921L31.7423 17.3936L24.709 23.6177L31.7675 30.6342L37.9762 27.0708C39.0657 26.484 39.8046 25.343 39.8046 24.0289C39.8046 22.7224 39.0757 21.5864 37.9989 20.9996Z" fill="#F9BD00"/>
</g>
<mask id="mask6_2358_11350" style="mask-type:luminance" maskUnits="userSpaceOnUse" x="0" y="0" width="163" height="48">
<path d="M162.909 0H0V48H162.909V0Z" fill="white"/>
</mask>
<g mask="url(#mask6_2358_11350)">
<path d="M12.1527 11.1318C12.0745 11.4152 12.0342 11.7136 12.0342 12.0196V35.9807C12.0342 36.2891 12.0745 36.5851 12.1527 36.8684L25.4401 23.6553L12.1527 11.1318Z" fill="#587DBE"/>
</g>
<mask id="mask7_2358_11350" style="mask-type:luminance" maskUnits="userSpaceOnUse" x="0" y="0" width="163" height="48">
<path d="M162.909 0H0V48H162.909V0Z" fill="white"/>
</mask>
<g mask="url(#mask7_2358_11350)">
<path d="M25.0943 24.0008L31.7443 17.3905L17.2994 9.06238C16.7748 8.74891 16.162 8.56836 15.5064 8.56836C13.9025 8.56836 12.5483 9.6542 12.1523 11.1287V11.1312L25.0943 24.0008Z" fill="#30A043"/>
</g>
</g>
<mask id="mask8_2358_11350" style="mask-type:luminance" maskUnits="userSpaceOnUse" x="0" y="0" width="163" height="48">
<path d="M162.909 0H0V48H162.909V0Z" fill="white"/>
</mask>
<g mask="url(#mask8_2358_11350)">
<path d="M50.4209 8.28613H52.8242C53.6009 8.28613 54.2793 8.44161 54.8568 8.75507C55.4343 9.06854 55.8781 9.50739 56.1908 10.0766C56.5035 10.6434 56.6573 11.2929 56.6573 12.0226C56.6573 12.7524 56.501 13.4019 56.1908 13.9686C55.8781 14.5353 55.4343 14.9767 54.8568 15.2902C54.2793 15.6036 53.6034 15.7591 52.8242 15.7591H50.4209V8.28613ZM52.7939 14.6758C53.6488 14.6758 54.3121 14.44 54.7836 13.9711C55.2552 13.5022 55.4923 12.8527 55.4923 12.0251C55.4923 11.1976 55.2552 10.5481 54.7836 10.0791C54.3121 9.6102 53.6488 9.37448 52.7939 9.37448H51.5759V14.6783H52.7939V14.6758Z" fill="white"/>
<path d="M58.1602 8.28613H59.3151V15.7616H58.1602V8.28613Z" fill="white"/>
<path d="M61.7284 15.3851C61.2316 15.024 60.8862 14.5149 60.6895 13.8604L61.7814 13.4215C61.8924 13.8378 62.0941 14.1814 62.3791 14.4447C62.6666 14.708 63.012 14.8409 63.4181 14.8409C63.7963 14.8409 64.1166 14.7431 64.3789 14.5475C64.6411 14.3519 64.7723 14.0836 64.7723 13.7425C64.7723 13.4291 64.6563 13.1708 64.4268 12.9651C64.1948 12.7595 63.7963 12.5589 63.2289 12.3658L62.7573 12.1978C62.2454 12.0172 61.8217 11.7639 61.4813 11.4405C61.1409 11.117 60.9719 10.6881 60.9719 10.1515C60.9719 9.78286 61.0728 9.44181 61.272 9.12835C61.4712 8.81488 61.7511 8.56913 62.1118 8.38607C62.4724 8.20551 62.8809 8.11523 63.3348 8.11523C63.9855 8.11523 64.5075 8.27322 64.8984 8.58919C65.2892 8.90516 65.5566 9.26376 65.6953 9.65998L64.6563 10.0988C64.5857 9.84806 64.4394 9.6324 64.2149 9.45184C63.9905 9.27129 63.7005 9.18101 63.3424 9.18101C62.9994 9.18101 62.7094 9.27129 62.4699 9.45184C62.2328 9.6324 62.1118 9.8631 62.1118 10.1415C62.1118 10.3998 62.2177 10.6129 62.432 10.7834C62.6464 10.954 62.9767 11.117 63.4231 11.2699L63.9048 11.4379C64.5478 11.6611 65.0446 11.9495 65.3952 12.3056C65.7457 12.6617 65.9197 13.1332 65.9197 13.725C65.9197 14.2115 65.7961 14.6202 65.5465 14.9512C65.2968 15.2823 64.9791 15.528 64.5907 15.6885C64.2023 15.849 63.8039 15.9292 63.3979 15.9292C62.7851 15.9267 62.2252 15.7462 61.7284 15.3851Z" fill="white"/>
<path d="M67.4404 8.28613H70.0228C70.4717 8.28613 70.8827 8.38393 71.2559 8.57953C71.6292 8.77514 71.9267 9.04597 72.1487 9.39454C72.3681 9.74311 72.479 10.1368 72.479 10.5732C72.479 11.012 72.3681 11.4057 72.1487 11.7518C71.9267 12.1004 71.6317 12.3712 71.2559 12.5668C70.8802 12.7624 70.4691 12.8602 70.0228 12.8602H68.5954V15.7616H67.4404V8.28613ZM70.053 11.7718C70.4389 11.7718 70.7465 11.6515 70.9811 11.4107C71.2156 11.17 71.3316 10.8916 71.3316 10.5707C71.3316 10.2497 71.2156 9.97131 70.9811 9.73057C70.7465 9.48983 70.4363 9.36946 70.053 9.36946H68.5929V11.7718H70.053Z" fill="white"/>
<path d="M75.3666 15.4056C74.7715 15.057 74.3049 14.5855 73.9645 13.9912C73.624 13.3969 73.4551 12.7399 73.4551 12.0227C73.4551 11.3055 73.624 10.6509 73.9645 10.0541C74.3049 9.45979 74.7715 8.98834 75.3666 8.63977C75.9618 8.2912 76.6225 8.11816 77.3513 8.11816C78.0801 8.11816 78.7383 8.2912 79.3309 8.63977C79.921 8.98834 80.3875 9.45979 80.728 10.0541C81.0684 10.6484 81.2374 11.3055 81.2374 12.0227C81.2374 12.7399 81.0684 13.3944 80.728 13.9912C80.3875 14.5855 79.9235 15.057 79.3309 15.4056C78.7383 15.7541 78.0801 15.9272 77.3513 15.9272C76.6225 15.9272 75.9618 15.7541 75.3666 15.4056ZM78.7307 14.4827C79.1468 14.242 79.4772 13.9085 79.7167 13.4796C79.9588 13.0508 80.0799 12.5668 80.0799 12.0227C80.0799 11.481 79.9588 10.9945 79.7167 10.5657C79.4746 10.1369 79.1468 9.80334 78.7307 9.5626C78.3146 9.32186 77.8531 9.20149 77.3513 9.20149C76.8469 9.20149 76.3879 9.32186 75.9718 9.5626C75.5558 9.80334 75.2279 10.1369 74.9858 10.5657C74.7437 10.9945 74.6227 11.4785 74.6227 12.0227C74.6227 12.5668 74.7437 13.0508 74.9858 13.4796C75.2279 13.9085 75.5558 14.242 75.9718 14.4827C76.3879 14.7235 76.8494 14.8438 77.3513 14.8438C77.8531 14.8413 78.3146 14.721 78.7307 14.4827Z" fill="white"/>
<path d="M82.7256 8.28613H84.0899L87.4918 13.778H87.5549L87.4918 12.3361V8.28613H88.6367V15.7616H87.4389L83.8705 9.98887H83.8074L83.8705 11.4308V15.7641H82.7256V8.28613Z" fill="white"/>
<path d="M90.5479 8.2858H91.7028V15.7613H90.5479V8.2858ZM91.1455 6.32227H92.4266L91.5868 7.68897H90.6512L91.1455 6.32227Z" fill="white"/>
<path d="M92.8154 8.28613H94.0763L95.7786 13.2564L96.0408 14.1015H96.1039L96.3863 13.2564L98.1617 8.28613H99.4226L96.6814 15.7616H95.4835L92.8154 8.28613Z" fill="white"/>
<path d="M100.542 8.28613H105.099V9.37197H101.697V11.4809H104.764V12.5668H101.697V14.6758H105.099V15.7616H100.542V8.28613Z" fill="white"/>
<path d="M106.715 8.28613H107.87V14.6758H111.103V15.7616H106.715V8.28613Z" fill="white"/>
<path d="M114.725 8.28613H116.089L119.491 13.778H119.554L119.491 12.3361V8.28613H120.636V15.7616H119.438L115.87 9.98887H115.806L115.87 11.4308V15.7641H114.725V8.28613Z" fill="white"/>
<path d="M124.047 15.4056C123.452 15.057 122.986 14.5855 122.645 13.9912C122.305 13.3969 122.136 12.7399 122.136 12.0227C122.136 11.3055 122.305 10.6509 122.645 10.0541C122.986 9.45979 123.452 8.98834 124.047 8.63977C124.642 8.2912 125.303 8.11816 126.032 8.11816C126.761 8.11816 127.419 8.2912 128.012 8.63977C128.602 8.98834 129.068 9.45979 129.409 10.0541C129.749 10.6484 129.918 11.3055 129.918 12.0227C129.918 12.7399 129.749 13.3944 129.409 13.9912C129.068 14.5855 128.604 15.057 128.012 15.4056C127.419 15.7541 126.761 15.9272 126.032 15.9272C125.303 15.9272 124.642 15.7541 124.047 15.4056ZM127.411 14.4827C127.827 14.242 128.158 13.9085 128.397 13.4796C128.639 13.0508 128.761 12.5668 128.761 12.0227C128.761 11.481 128.639 10.9945 128.397 10.5657C128.155 10.1369 127.827 9.80334 127.411 9.5626C126.995 9.32186 126.534 9.20149 126.032 9.20149C125.528 9.20149 125.069 9.32186 124.653 9.5626C124.236 9.80334 123.906 10.1369 123.666 10.5657C123.424 10.9945 123.303 11.4785 123.303 12.0227C123.303 12.5668 123.424 13.0508 123.666 13.4796C123.909 13.9085 124.236 14.242 124.653 14.4827C125.069 14.7235 125.53 14.8438 126.032 14.8438C126.536 14.8413 126.995 14.721 127.411 14.4827Z" fill="white"/>
</g>
</svg>
